<svg id="Layer_1" data-name="Layer 1" xmlns="http://www.w3.org/2000/svg" xmlns:xlink="http://www.w3.org/1999/xlink" viewBox="0 0 160.39 192.7"><defs><style>.cls-1{fill:#fff;}.cls-2{clip-path:url(#clip-path);}</style><clipPath id="clip-path"><path class="cls-1" d="M137.4,49.68a8.34,8.34,0,0,0-3.86,1.77,11.93,11.93,0,0,0-3.93,7.3,12.22,12.22,0,0,0,1,8.06,8.73,8.73,0,0,0,6.48,4.64,11.3,11.3,0,0,0,3.33.17,6.62,6.62,0,0,0,2.91-1.2l-.43,2.35,4.21.11,2-11.49-8.67-1.53-.63,3.51,4.59.81a4.32,4.32,0,0,1-2.17,3.12,5.58,5.58,0,0,1-7.38-1.76A7.8,7.8,0,0,1,134,59.7a8.28,8.28,0,0,1,2.88-5.47,5.31,5.31,0,0,1,4.3-1,5.59,5.59,0,0,1,3,1.52,3.47,3.47,0,0,1,1.13,2.72l4.37.76a6.81,6.81,0,0,0-2.1-5.79,10.73,10.73,0,0,0-5.78-2.81,12,12,0,0,0-2.13-.19,10.57,10.57,0,0,0-2.32.25"/></clipPath></defs><title>Untitled-2</title><path class="cls-1" d="M137.4,49.68a8.34,8.34,0,0,0-3.86,1.77,11.93,11.93,0,0,0-3.93,7.3,12.22,12.22,0,0,0,1,8.06,8.73,8.73,0,0,0,6.48,4.64,11.3,11.3,0,0,0,3.33.17,6.62,6.62,0,0,0,2.91-1.2l-.43,2.35,4.21.11,2-11.49-8.67-1.53-.63,3.51,4.59.81a4.32,4.32,0,0,1-2.17,3.12,5.58,5.58,0,0,1-7.38-1.76A7.8,7.8,0,0,1,134,59.7a8.28,8.28,0,0,1,2.88-5.47,5.31,5.31,0,0,1,4.3-1,5.59,5.59,0,0,1,3,1.52,3.47,3.47,0,0,1,1.13,2.72l4.37.76a6.81,6.81,0,0,0-2.1-5.79,10.73,10.73,0,0,0-5.78-2.81,12,12,0,0,0-2.13-.19,10.57,10.57,0,0,0-2.32.25"/><g class="cls-2"><rect class="cls-1" x="129.07" y="49.43" width="20.89" height="23.46"/></g><polygon class="cls-1" points="113.96 68.17 160.39 76.37 160.07 78.15 113.64 69.95 113.96 68.17"/><polygon class="cls-1" points="121.69 66.4 121.64 66.65 127.44 69.2 128.85 70.63 147.54 73.92 149.36 73.07 155.68 72.65 155.73 72.39 121.69 66.4"/><path class="cls-1" d="M143.44,75.58l-8.3-.55L135,76.89c-2.93.83-9.92.84-16.3-1.22C104.14,71,97.94,63.48,97.94,63.48l-6.2,10.25s12.94,7.55,28.05,8.36c15.63.84,23.6-3.3,23.6-3.3Z"/><path class="cls-1" d="M34.06,30,36,35.13s-.58,2.46-.3,3.06c1.57,3.36,4.66,7.64,10.69,11.47,12.61,8,21.11,4,21.11,4l.56,14.44S55.81,66.81,42.67,55C30.91,44.44,29.83,35.48,29.83,35.48Z"/><path class="cls-1" d="M89.19,152.35s-1.79,29.81-1.8,30.82c0,4.83,3.51,9.53,3.51,9.53l-17.28-.08,4-42.82-.62-13,12,3.83Z"/><path class="cls-1" d="M60.19,148.24S43.62,173.08,43.11,174c-2.44,4.17-1.75,10-1.75,10L28.52,173.09l23-32.89,5.15-9.92,14.61,4.78Z"/><path class="cls-1" d="M90.16,139.81l8-69.88.11-7.09-7-1.23-.65-5.12h0l-.38-1.75a4.06,4.06,0,0,1-2.69.69c-3.61-.07-9.92-.9-13.25-.8-5.08.17-5.65.51-5.65.51L73.84,84.3l-19,44.23Z"/><path class="cls-1" d="M98.36,57l-6.47-.4.5,4,5.9,1ZM95,59.63a.67.67,0,1,1,.23-1.32.7.7,0,0,1,.62.79.72.72,0,0,1-.85.53"/><path class="cls-1" d="M27.73,30l0,2.73L31,31.59l-1.64-2.15A22.5,22.5,0,0,0,42.58,1.2,25.71,25.71,0,0,0,27.52,1c-7.1,2-11.15,9.21-16.13,12.29A18.58,18.58,0,0,1,0,15.7,22.48,22.48,0,0,0,27.73,30"/><path class="cls-1" d="M96.34,41A6.07,6.07,0,0,0,99,46.18s-2.9.72-3.35,2c-1.57,4.34-4.82,5.43-8.41,4.8C83,52.22,80.42,47,81.42,41.36a7.88,7.88,0,0,1,.19-.87v-.24c.24-3.38-1.38-5-3.26-6.52a5.82,5.82,0,0,1-8.95-5.11,5.84,5.84,0,0,1,1.88-4.1,7.48,7.48,0,0,1,6.26-12.31,7.66,7.66,0,0,1,3.23,1,5.79,5.79,0,0,1,10,4.13c0,.22,0,.44-.07.65a14.76,14.76,0,0,1,2,3.84C94.46,26.55,93.91,34,93.91,34a10,10,0,0,1,2.43,7"/></svg>