<svg id="Layer_1" data-name="Layer 1" xmlns="http://www.w3.org/2000/svg" viewBox="0 0 790.92 153.81"><defs><style>.cls-1{fill:#fff;}</style></defs><title>logo</title><path class="cls-1" d="M68.18,127.88a49.56,49.56,0,0,0,20.65-4.13l2.9-24.59H78.92a6.55,6.55,0,0,1-4.44-1.34,4.51,4.51,0,0,1-1.55-3.61L75.2,74.79h50.2l-7.85,62.9a79.73,79.73,0,0,1-12,7.29,78.8,78.8,0,0,1-13,5,91.81,91.81,0,0,1-14.26,2.9,129.62,129.62,0,0,1-16,.93,62,62,0,0,1-25.46-5.12,58.42,58.42,0,0,1-19.73-14.1A63.58,63.58,0,0,1,4.49,113.32,77.22,77.22,0,0,1,0,86.66a97.48,97.48,0,0,1,2.84-23.8A88,88,0,0,1,11,41.94,82.6,82.6,0,0,1,23.6,24.58,79.79,79.79,0,0,1,40,11.36,78.68,78.68,0,0,1,59.5,2.94,80.31,80.31,0,0,1,81.4,0,79.42,79.42,0,0,1,98.8,1.76a66.26,66.26,0,0,1,14,4.7,56.61,56.61,0,0,1,11,6.81,72.32,72.32,0,0,1,8.58,8l-11,13.53q-3.72,4.55-8.37,4.55a10.45,10.45,0,0,1-5.68-1.86c-2.48-1.59-4.79-3-6.92-4.19a44,44,0,0,0-6.46-3,39.19,39.19,0,0,0-6.92-1.81,49.9,49.9,0,0,0-8.21-.62,38.73,38.73,0,0,0-18,4.18A41.66,41.66,0,0,0,46.9,43.85a56,56,0,0,0-9.14,18.23A79.88,79.88,0,0,0,34.5,85.53a60.57,60.57,0,0,0,2.43,17.82,38.75,38.75,0,0,0,6.87,13.32A30,30,0,0,0,54.44,125,32.05,32.05,0,0,0,68.18,127.88Z"/><path class="cls-1" d="M175.5,153.81a46.38,46.38,0,0,1-16.79-3,38.37,38.37,0,0,1-13.53-8.73,40.07,40.07,0,0,1-9-14.15,53.46,53.46,0,0,1-3.26-19.37,70.88,70.88,0,0,1,4.7-26.18A65.57,65.57,0,0,1,150.3,61.77a57.74,57.74,0,0,1,18.43-13.53,51.84,51.84,0,0,1,22.06-4.86,45.91,45.91,0,0,1,16.73,3A38.44,38.44,0,0,1,221,55.11a40.9,40.9,0,0,1,9,14.15,52.81,52.81,0,0,1,3.3,19.37,70.17,70.17,0,0,1-4.7,26A66.38,66.38,0,0,1,216,135.26a58,58,0,0,1-18.44,13.64A51.43,51.43,0,0,1,175.5,153.81Zm2.89-23.76A15.43,15.43,0,0,0,188,126.8a26.47,26.47,0,0,0,7.18-8.89,51.52,51.52,0,0,0,4.54-13.12,76,76,0,0,0,1.6-16q0-11.67-3.15-16.68t-10.28-5a15.38,15.38,0,0,0-9.6,3.25,26.42,26.42,0,0,0-7.18,8.84,50.72,50.72,0,0,0-4.55,13.12,77.39,77.39,0,0,0-1.6,16q0,11.46,3.15,16.58T178.39,130.05Z"/><path class="cls-1" d="M284,45l-8.06,68c-.14,1.11-.24,2.12-.31,3s-.1,1.81-.1,2.64c0,3.65.63,6.19,1.91,7.64s3.19,2.17,5.73,2.17a14.42,14.42,0,0,0,6.77-1.91,28.21,28.21,0,0,0,6.87-5.37,43.49,43.49,0,0,0,6.14-8.42,53.48,53.48,0,0,0,4.7-11L314.53,45h32l-13,107.11H317.22q-11.36,0-11.36-10.53V134.8q-7.75,9.7-16.63,14.36a39.4,39.4,0,0,1-18.49,4.65,27.47,27.47,0,0,1-11-2.17,24.23,24.23,0,0,1-8.68-6.36A29.18,29.18,0,0,1,245.38,135a45.36,45.36,0,0,1-2-14.1c0-1.24,0-2.52.15-3.83s.22-2.65.36-4l8.06-68Z"/><path class="cls-1" d="M353.58,152.15,366.59,45h16.53q5,0,7.75,2.32T393.66,55V67.14q6.19-10.95,13.43-16.83t15-5.89a20.21,20.21,0,0,1,8.58,2L424.85,76a25.23,25.23,0,0,0-10-2.28q-7.95,0-14.1,7.18t-10,23.09L385,152.15Z"/><path class="cls-1" d="M440,77h51.85l-3.31,25H436.94Z"/><path class="cls-1" d="M564.5,152.15l8.06-68.07c.14-1.1.24-2.12.31-3s.1-1.81.1-2.64c0-3.65-.63-6.18-1.91-7.59s-3.18-2.12-5.73-2.12A14.81,14.81,0,0,0,558,70.86,29,29,0,0,0,550.71,77a47.1,47.1,0,0,0-6.35,9.56A55.71,55.71,0,0,0,539.82,99l-5.89,53.19h-32L514.72,45h16.52q5,0,7.75,2.32T541.78,55v8.58q7.74-10.33,16.94-15.24a39.89,39.89,0,0,1,19-4.91,27.51,27.51,0,0,1,11,2.17,23.77,23.77,0,0,1,8.62,6.36A30.52,30.52,0,0,1,603,62.18a43.69,43.69,0,0,1,2.07,14.05c0,1.24-.05,2.52-.16,3.82s-.22,2.66-.36,4l-8.05,68.07Z"/><path class="cls-1" d="M710.15,71.38a31.06,31.06,0,0,1-2.89,13.43q-2.89,6.09-10.07,10.79t-19.32,8a191.94,191.94,0,0,1-30.53,5.17q.21,11,4.81,16t13.58,5.06a32.85,32.85,0,0,0,7.34-.72,25.45,25.45,0,0,0,5.42-1.86,36,36,0,0,0,4.18-2.38l3.57-2.37a18,18,0,0,1,3.56-1.86,11.67,11.67,0,0,1,4.24-.72,6.22,6.22,0,0,1,3,.77,10,10,0,0,1,2.58,2l8.27,9.61A112.29,112.29,0,0,1,696.77,142a60.25,60.25,0,0,1-11.15,6.71,53.21,53.21,0,0,1-12.19,3.88,75.51,75.51,0,0,1-14.1,1.24,45.65,45.65,0,0,1-17.46-3.26,39.74,39.74,0,0,1-13.69-9.19,41.24,41.24,0,0,1-8.88-14.31,52.36,52.36,0,0,1-3.15-18.59,73.37,73.37,0,0,1,1.91-16.73,70,70,0,0,1,5.48-15.34,64.05,64.05,0,0,1,8.72-13.23,58,58,0,0,1,11.62-10.38A54.85,54.85,0,0,1,658,46a54,54,0,0,1,16.37-2.43,43.65,43.65,0,0,1,15.24,2.48,35.52,35.52,0,0,1,11.2,6.46,27.82,27.82,0,0,1,6.92,8.93A22.71,22.71,0,0,1,710.15,71.38Zm-37.6-6.2q-8,0-13.95,6.35t-9,17.41a149.88,149.88,0,0,0,16.21-3.26A39.79,39.79,0,0,0,675.44,82a11.48,11.48,0,0,0,4.6-4.33,10.88,10.88,0,0,0,1.19-5,7.63,7.63,0,0,0-2.07-5.07Q677.09,65.18,672.55,65.18Z"/><path class="cls-1" d="M725.85,129v-1.76q0-1,.15-2.94c.11-1.28.28-3,.52-5.07s.57-4.87,1-8.31L733,67.14H724.4a4.56,4.56,0,0,1-3.3-1.29A5.11,5.11,0,0,1,719.75,62c0-.07.07-.67.21-1.81s.27-2.34.41-3.62.28-2.46.42-3.56.2-1.72.2-1.86l.31-2.79L737.52,45l9-26.14c1-3.3,3.37-5,7-5h17.36L767,45.24h24l-2.68,21.9h-24l-5.16,42c-.35,2.83-.6,5-.78,6.67s-.31,2.85-.41,3.71-.17,1.45-.2,1.76-.06.5-.06.57a8.6,8.6,0,0,0,1.4,5,5,5,0,0,0,4.39,2,8.76,8.76,0,0,0,2.73-.36,11.07,11.07,0,0,0,1.92-.83c.55-.3,1.06-.58,1.54-.82a3.71,3.71,0,0,1,1.66-.36,3.1,3.1,0,0,1,2.17.67,6.2,6.2,0,0,1,1.34,2.12l7,15.18a48,48,0,0,1-13.73,7,48.73,48.73,0,0,1-14.78,2.33,34,34,0,0,1-11.15-1.71,23.86,23.86,0,0,1-8.52-5,22.89,22.89,0,0,1-5.58-7.79A27.67,27.67,0,0,1,725.85,129Z"/></svg>