<svg id="Layer_1" data-name="Layer 1" xmlns="http://www.w3.org/2000/svg" viewBox="0 0 582.73 157.17"><defs><style>.cls-1{fill:#fff;}</style></defs><title>logo2_solo</title><path class="cls-1" d="M30.33,109.23A35,35,0,0,1,8.6,95.6Q.68,84.7.68,68.33t8-27.26a34.81,34.81,0,0,1,21.9-13.63l.85-.17a45.66,45.66,0,0,1,16.7,0l.77.17A28.85,28.85,0,0,1,61.6,33.49V26.58H78.9v86.14q0,19.1-11.33,30.42T37.23,154.56q-13,0-22.66-5.37A36,36,0,0,1,0,133.68L15.51,126a18.33,18.33,0,0,0,9.79,9.11,30.88,30.88,0,0,0,11.93,2.13q24.38,0,24.37-24.54v-9.45a28.92,28.92,0,0,1-12.44,6l-.94.17a44.87,44.87,0,0,1-8.43.77,46.23,46.23,0,0,1-8.52-.77Zm9.46-65.44q-12.27,0-17.72,8.1Q17.89,58,17.89,68.33t4.18,16.53Q27.52,93,39.79,93t17.64-8.1q4.17-6,4.17-16.36v-.34q0-10.21-4.17-16.36Q52,43.79,39.79,43.79Z"/><path class="cls-1" d="M131.64,26.5q17.81,0,28.46,11.42t10.64,30.41q0,19.1-10.64,30.42t-28.46,11.42q-17.8,0-28.46-11.42T92.53,68.33q0-19.08,10.65-30.41T131.64,26.5Zm0,66.37q12.27,0,17.72-8,4.17-6.21,4.17-16.53T149.36,51.8q-5.46-8-17.72-8t-17.72,8q-4.1,6.23-4.09,16.53t4.09,16.53Q119.37,92.87,131.64,92.87Z"/><path class="cls-1" d="M204,106.5A32.51,32.51,0,0,1,189.58,92q-5.21-10-5.2-23.69V26.5h17.29V68.33q0,10.4,3.5,16.53,4.59,8,15,8,10.23,0,14.83-7.75,3.57-6.06,3.66-16.19V26.5H256v83.58h-17.3v-5a13.41,13.41,0,0,1-2.3,1.45,37.55,37.55,0,0,1-32.38,0Z"/><path class="cls-1" d="M291.48,110.17h-17.3V26.67h17.3v6.9a29.62,29.62,0,0,1,12.44-6.05l.85-.17a46.23,46.23,0,0,1,8.52-.77v17.3q-12.19,0-17.64,8-4.17,6.13-4.17,16.44Z"/><path class="cls-1" d="M422.18,30.16a32.54,32.54,0,0,1,14.4,14.57q5.19,10,5.19,23.6v41.84H424.48V68.33q0-10.3-3.5-16.44-4.59-8.1-15-8.1-10.23,0-14.83,7.84-3.57,6-3.66,16.11v42.43H370.2V26.58h17.3v5c.74-.51,1.5-1,2.3-1.45a37.64,37.64,0,0,1,32.38,0Z"/><path class="cls-1" d="M533.62,75.83H473.38q3.33,17,22,17a29.82,29.82,0,0,0,13.29-2.81,17.65,17.65,0,0,0,8.09-7.92l15.51,7.58a33.57,33.57,0,0,1-14.49,15,45.23,45.23,0,0,1-22.4,5.46q-18.24,0-29.06-11.42t-10.9-30.42q0-19.08,10.65-30.41T494.51,26.5q15.6,0,25.82,8.86t12.61,24.11a47.68,47.68,0,0,1,.68,8.1v8.26ZM515.39,59.47q-3.67-15.67-20.88-15.68T473.64,59.47Z"/><path class="cls-1" d="M553,45.24l-12.1-1.45V26.5L553,28V0h17.3V28l12.1-1.45V43.79l-12.1,1.45V84q0,5.28,2.3,7.41a7.87,7.87,0,0,0,5.2,1.45h4.51v17.3h-4.51q-11.18,0-18-7.25T553,84V45.24Z"/><path class="cls-1" d="M318.11,84.66l14-14-14-14L330.3,44.53l26.15,26.16L330.3,96.93Z"/></svg>