<svg id="Layer_1" data-name="Layer 1" xmlns="http://www.w3.org/2000/svg" viewBox="0 0 582.73 157.17"><defs><style>.cls-1{fill:#fff;}</style></defs><title>logo2</title><path class="cls-1" d="M30.33,109.23A35,35,0,0,1,8.6,95.6Q.68,84.7.68,68.33t8-27.26a34.81,34.81,0,0,1,21.9-13.63l.85-.17a45.66,45.66,0,0,1,16.7,0l.77.17A28.85,28.85,0,0,1,61.6,33.49V26.58H78.9v86.14q0,19.1-11.33,30.42T37.23,154.56q-13,0-22.66-5.37A36,36,0,0,1,0,133.68L15.51,126a18.33,18.33,0,0,0,9.79,9.11,30.88,30.88,0,0,0,11.93,2.13q24.38,0,24.37-24.54v-9.45a28.92,28.92,0,0,1-12.44,6l-.94.17a44.87,44.87,0,0,1-8.43.77,46.23,46.23,0,0,1-8.52-.77Zm9.46-65.44q-12.27,0-17.72,8.1Q17.89,58,17.89,68.33t4.18,16.53Q27.52,93,39.79,93t17.64-8.1q4.17-6,4.17-16.36v-.34q0-10.21-4.17-16.36Q52,43.79,39.79,43.79Z"/><path class="cls-1" d="M131.64,26.5q17.81,0,28.46,11.42t10.64,30.41q0,19.1-10.64,30.42t-28.46,11.42q-17.8,0-28.46-11.42T92.53,68.33q0-19.08,10.65-30.41T131.64,26.5Zm0,66.37q12.27,0,17.72-8,4.17-6.21,4.17-16.53T149.36,51.8q-5.46-8-17.72-8t-17.72,8q-4.1,6.23-4.09,16.53t4.09,16.53Q119.37,92.87,131.64,92.87Z"/><path class="cls-1" d="M204,106.5A32.51,32.51,0,0,1,189.58,92q-5.21-10-5.2-23.69V26.5h17.29V68.33q0,10.4,3.5,16.53,4.59,8,15,8,10.23,0,14.83-7.75,3.57-6.06,3.66-16.19V26.5H256v83.58h-17.3v-5a13.41,13.41,0,0,1-2.3,1.45,37.55,37.55,0,0,1-32.38,0Z"/><path class="cls-1" d="M291.48,110.17h-17.3V26.67h17.3v6.9a29.62,29.62,0,0,1,12.44-6.05l.85-.17a46.23,46.23,0,0,1,8.52-.77v17.3q-12.19,0-17.64,8-4.17,6.13-4.17,16.44Z"/><path class="cls-1" d="M422.18,30.16a32.54,32.54,0,0,1,14.4,14.57q5.19,10,5.19,23.6v41.84H424.48V68.33q0-10.3-3.5-16.44-4.59-8.1-15-8.1-10.23,0-14.83,7.84-3.57,6-3.66,16.11v42.43H370.2V26.58h17.3v5c.74-.51,1.5-1,2.3-1.45a37.64,37.64,0,0,1,32.38,0Z"/><path class="cls-1" d="M533.62,75.83H473.38q3.33,17,22,17a29.82,29.82,0,0,0,13.29-2.81,17.65,17.65,0,0,0,8.09-7.92l15.51,7.58a33.57,33.57,0,0,1-14.49,15,45.23,45.23,0,0,1-22.4,5.46q-18.24,0-29.06-11.42t-10.9-30.42q0-19.08,10.65-30.41T494.51,26.5q15.6,0,25.82,8.86t12.61,24.11a47.68,47.68,0,0,1,.68,8.1v8.26ZM515.39,59.47q-3.67-15.67-20.88-15.68T473.64,59.47Z"/><path class="cls-1" d="M553,45.24l-12.1-1.45V26.5L553,28V0h17.3V28l12.1-1.45V43.79l-12.1,1.45V84q0,5.28,2.3,7.41a7.87,7.87,0,0,0,5.2,1.45h4.51v17.3h-4.51q-11.18,0-18-7.25T553,84V45.24Z"/><path class="cls-1" d="M318.11,84.66l14-14-14-14L330.3,44.53l26.15,26.16L330.3,96.93Z"/><path class="cls-1" d="M104.68,143.81a1.4,1.4,0,0,1-1.39,1.39H85.06a1.37,1.37,0,0,1-1.39-1.39V115.88a1.37,1.37,0,0,1,1.39-1.39h18.23a1.37,1.37,0,1,1,0,2.74H86.45V127.8H98.59a1.37,1.37,0,1,1,0,2.74H86.45v11.88h16.84A1.43,1.43,0,0,1,104.68,143.81Z"/><path class="cls-1" d="M113.57,115.88v27.93a1.4,1.4,0,0,1-2.79,0V115.88a1.4,1.4,0,0,1,2.79,0Z"/><path class="cls-1" d="M156.47,133.45c0,6.7-4.79,11.75-11.1,11.75a10.7,10.7,0,0,1-8.35-3.83v14.4a1.38,1.38,0,0,1-1.39,1.4,1.41,1.41,0,0,1-1.39-1.4V123.06a1.39,1.39,0,0,1,1.39-1.35,1.37,1.37,0,0,1,1.39,1.35v2.43a10.82,10.82,0,0,1,8.35-3.78C151.68,121.71,156.47,126.75,156.47,133.45Zm-2.74,0c0-5.13-3.61-9-8.36-9s-8.35,3.87-8.35,9,3.57,9,8.35,9S153.73,138.54,153.73,133.45Z"/><path class="cls-1" d="M184.15,123.06v20.75a1.4,1.4,0,0,1-2.79,0v-2.44A10.7,10.7,0,0,1,173,145.2c-6.31,0-11.09-5-11.09-11.75s4.78-11.74,11.09-11.74a10.82,10.82,0,0,1,8.35,3.78v-2.43a1.4,1.4,0,0,1,2.79,0Zm-2.79,10.39c0-5.13-3.57-9-8.35-9s-8.31,3.87-8.31,9,3.57,9,8.31,9S181.36,138.54,181.36,133.45Z"/><path class="cls-1" d="M201.34,123.06a1.37,1.37,0,0,1-1.39,1.39c-3.83,0-6.74,3.13-6.74,7.27v12.09a1.38,1.38,0,1,1-2.75,0V123.06a1.38,1.38,0,0,1,2.75,0v1.43a9.26,9.26,0,0,1,6.74-2.78A1.37,1.37,0,0,1,201.34,123.06Z"/><path class="cls-1" d="M219.57,141.29a1.37,1.37,0,0,1,.18,2,5.64,5.64,0,0,1-9.92-3.65V124.45h-1.26a1.37,1.37,0,0,1,0-2.74h1.26v-4.44a1.4,1.4,0,0,1,1.39-1.39,1.37,1.37,0,0,1,1.39,1.39v4.44h4.92a1.37,1.37,0,1,1,0,2.74h-4.92v15.14a2.87,2.87,0,0,0,2.87,2.83,2.73,2.73,0,0,0,2.14-1A1.36,1.36,0,0,1,219.57,141.29Z"/><path class="cls-1" d="M244.9,131.72v12.09a1.37,1.37,0,1,1-2.74,0V131.72c0-4.18-2.74-7.27-6.53-7.27a7.06,7.06,0,0,0-7,7.27v12.09a1.37,1.37,0,1,1-2.74,0V123.06a1.37,1.37,0,0,1,2.74,0v1.56a9.65,9.65,0,0,1,7-2.91,8.83,8.83,0,0,1,6.79,3A10.53,10.53,0,0,1,244.9,131.72Z"/><path class="cls-1" d="M262.09,145.2c-6.35,0-11.09-5-11.09-11.75a12.36,12.36,0,0,1,3-8.26,10.4,10.4,0,0,1,7.91-3.48c6.23,0,10.71,4.91,10.71,11.74a1.41,1.41,0,0,1-1.4,1.4H253.83a8.36,8.36,0,0,0,8.26,7.57,7.85,7.85,0,0,0,7-3.92,1.41,1.41,0,0,1,2.4,1.48A10.78,10.78,0,0,1,262.09,145.2Zm-8.26-13.14H269.7c-.52-4.52-3.56-7.61-7.83-7.61S254.39,127.58,253.83,132.06Z"/><path class="cls-1" d="M289.55,123.06a1.37,1.37,0,0,1-1.39,1.39c-3.83,0-6.74,3.13-6.74,7.27v12.09a1.38,1.38,0,1,1-2.75,0V123.06a1.38,1.38,0,0,1,2.75,0v1.43a9.26,9.26,0,0,1,6.74-2.78A1.37,1.37,0,0,1,289.55,123.06Z"/><path class="cls-1" d="M334,115.88v27.93a1.37,1.37,0,1,1-2.74,0v-2.44a10.7,10.7,0,0,1-8.35,3.83c-6.35,0-11.14-5-11.14-11.75s4.79-11.74,11.14-11.74a10.82,10.82,0,0,1,8.35,3.78v-9.61a1.37,1.37,0,1,1,2.74,0Zm-2.74,17.57c0-5.13-3.61-9-8.35-9s-8.36,3.87-8.36,9,3.61,9,8.36,9S331.24,138.54,331.24,133.45Z"/><path class="cls-1" d="M351.17,145.2c-6.35,0-11.09-5-11.09-11.75a12.36,12.36,0,0,1,3-8.26,10.42,10.42,0,0,1,7.92-3.48c6.22,0,10.7,4.91,10.7,11.74a1.41,1.41,0,0,1-1.39,1.4H342.91a8.38,8.38,0,0,0,8.26,7.57,7.87,7.87,0,0,0,7-3.92,1.41,1.41,0,0,1,2.39,1.48A10.78,10.78,0,0,1,351.17,145.2Zm-8.26-13.14h15.88c-.52-4.52-3.57-7.61-7.83-7.61S343.47,127.58,342.91,132.06Z"/><path class="cls-1" d="M394.69,141.29a1.38,1.38,0,0,1,.18,2,5.64,5.64,0,0,1-9.92-3.65V124.45h-1.27a1.37,1.37,0,0,1,0-2.74H385v-4.44a1.4,1.4,0,0,1,1.39-1.39,1.37,1.37,0,0,1,1.39,1.39v4.44h4.92a1.37,1.37,0,1,1,0,2.74h-4.92v15.14a2.87,2.87,0,0,0,2.87,2.83,2.7,2.7,0,0,0,2.13-1A1.38,1.38,0,0,1,394.69,141.29Z"/><path class="cls-1" d="M419.63,123.06v20.75a1.4,1.4,0,0,1-2.79,0v-1.57a9.48,9.48,0,0,1-6.92,3,8.92,8.92,0,0,1-6.78-3,10.67,10.67,0,0,1-2.53-7V123.06a1.4,1.4,0,0,1,2.79,0v12.09c0,4.22,2.74,7.27,6.52,7.27a7,7,0,0,0,6.92-7.27V123.06a1.4,1.4,0,0,1,2.79,0Z"/><path class="cls-1" d="M455.53,145.2c-6.31,0-11.09-5-11.09-11.75s4.78-11.74,11.09-11.74a10.68,10.68,0,0,1,9,4.61,1.39,1.39,0,1,1-2.26,1.61,8,8,0,0,0-6.7-3.48c-4.74,0-8.35,3.87-8.35,9s3.61,9,8.35,9a7.94,7.94,0,0,0,6.7-3.44,1.38,1.38,0,1,1,2.26,1.57A10.74,10.74,0,0,1,455.53,145.2Z"/><path class="cls-1" d="M482,145.2a11.75,11.75,0,1,1,11.75-11.75A11.75,11.75,0,0,1,482,145.2Zm0-20.75a9,9,0,1,0,9,9A9,9,0,0,0,482,124.45Z"/><path class="cls-1" d="M510.76,145.2c-6.31,0-11.1-5-11.1-11.75s4.79-11.74,11.1-11.74a10.69,10.69,0,0,1,9,4.61,1.41,1.41,0,0,1-.35,2,1.39,1.39,0,0,1-1.91-.35,8,8,0,0,0-6.7-3.48c-4.75,0-8.36,3.87-8.36,9s3.61,9,8.36,9a8,8,0,0,0,6.7-3.44,1.38,1.38,0,1,1,2.26,1.57A10.75,10.75,0,0,1,510.76,145.2Z"/><path class="cls-1" d="M527.6,116.53a1.5,1.5,0,0,1,1.52,1.48,1.47,1.47,0,0,1-1.52,1.48,1.5,1.5,0,0,1-1.52-1.48A1.53,1.53,0,0,1,527.6,116.53Zm0,28.67a1.4,1.4,0,0,1-1.39-1.39V123.06a1.39,1.39,0,0,1,1.39-1.35,1.37,1.37,0,0,1,1.39,1.35v20.75A1.37,1.37,0,0,1,527.6,145.2Z"/><path class="cls-1" d="M554.62,131.72v12.09a1.37,1.37,0,1,1-2.74,0V131.72c0-4.18-2.74-7.27-6.53-7.27a7.06,7.06,0,0,0-7,7.27v12.09a1.37,1.37,0,1,1-2.74,0V123.06a1.37,1.37,0,0,1,2.74,0v1.56a9.65,9.65,0,0,1,7-2.91,8.83,8.83,0,0,1,6.79,3A10.53,10.53,0,0,1,554.62,131.72Z"/><path class="cls-1" d="M582.73,123.06v20.75a1.39,1.39,0,0,1-2.78,0v-2.44a10.72,10.72,0,0,1-8.36,3.83c-6.31,0-11.09-5-11.09-11.75s4.78-11.74,11.09-11.74a10.84,10.84,0,0,1,8.36,3.78v-2.43a1.39,1.39,0,0,1,2.78,0ZM580,133.45c0-5.13-3.57-9-8.36-9s-8.31,3.87-8.31,9,3.57,9,8.31,9S580,138.54,580,133.45Z"/></svg>