<svg id="Layer_1" data-name="Layer 1" xmlns="http://www.w3.org/2000/svg" viewBox="0 0 632.57 1024"><defs><style>.cls-1{fill:#da1573;}.cls-2{fill:#4e76ea;}</style></defs><title>teamLogo</title><path class="cls-1" d="M49.54,118.28A10.84,10.84,0,0,1,41,114.79l-16.3-19a10.47,10.47,0,0,1-5.25-5,17.2,17.2,0,0,1-1.36-7V52.28q0-12.81,12.82-12.81h94.34A15.77,15.77,0,0,1,133,41.41a9.66,9.66,0,0,1,4.66,6.21L154,67a9.26,9.26,0,0,1,2,4.08,23.66,23.66,0,0,1,.38,4.08v31.44q0,11.66-11.64,11.65H124.86v224.8q0,11.66-11.64,11.65H81.77q-6.22,0-9.32-3.5L56.14,331.82c-2.85-1-4.66-2.59-5.43-4.66a19.71,19.71,0,0,1-1.17-7Zm76.88-66a1,1,0,0,0-1.17-1.17H30.91a1,1,0,0,0-1.17,1.17V83.73a1,1,0,0,0,1.17,1.16H61.19V320.17a1,1,0,0,0,1.17,1.17H93.8A1,1,0,0,0,95,320.17V84.89h30.28a1,1,0,0,0,1.17-1.16Z"/><path class="cls-1" d="M282.1,184.29q2.72,2.72,2.72,7.76v31.84a11.68,11.68,0,0,1-3.11,8.34,10.65,10.65,0,0,1-8.15,3.31H238.23v39.21h15.92a15.76,15.76,0,0,1,7.76,1.94,9.65,9.65,0,0,1,4.66,6.21l16.31,19.41a9.24,9.24,0,0,1,1.94,4.08,23.8,23.8,0,0,1,.39,4.08v31.45q0,11.64-11.65,11.64H194.74q-6.21,0-9.31-3.49l-16.31-19.41a9,9,0,0,1-5.24-4.66,17.26,17.26,0,0,1-1.36-7V51.11q0-12.81,12.81-12.81h78.82a15.76,15.76,0,0,1,7.76,1.94,9.65,9.65,0,0,1,4.66,6.22l16.31,19.41a9.25,9.25,0,0,1,1.94,4.07,23.8,23.8,0,0,1,.39,4.08v31.45q0,11.66-11.65,11.65H238.23v39.21c2.33,0,4.91-.06,7.76-.19a44.42,44.42,0,0,1,8.35.39,19.88,19.88,0,0,1,7.38,2.52,10,10,0,0,1,4.46,6.6ZM255.31,287.56a1,1,0,0,0-1.16-1.16H208.33V202.15h45.82c.51-.52.77-.91.77-1.17V169.14c0-.25-.26-.64-.77-1.16H208.33V83.73h45.82a1,1,0,0,0,1.16-1.17V51.11A1,1,0,0,0,254.15,50H175.33a1,1,0,0,0-1.16,1.16V319a1,1,0,0,0,1.16,1.16h78.82a1,1,0,0,0,1.16-1.16Z"/><path class="cls-1" d="M326.75,354a17.91,17.91,0,0,1-5.24-.77,10.81,10.81,0,0,1-4.47-2.72l-16.31-19.41q-4.28-1.56-5.43-5.05a24.37,24.37,0,0,1-1.17-7.77V86.06a77.51,77.51,0,0,1,1-12.23,34,34,0,0,1,4.09-11.46,47.8,47.8,0,0,1,14-15.33,44.22,44.22,0,0,1,19.47-8,109.07,109.07,0,0,1,14.79-.58q7.78.2,15.19.19a93.27,93.27,0,0,1,18.69,1.75,39.27,39.27,0,0,1,16.74,8.35,34.28,34.28,0,0,1,5.45,5,48.91,48.91,0,0,1,4.29,5.83,3.54,3.54,0,0,1,1,1.74,3.31,3.31,0,0,0,1,1.75c2.08,2.59,4.47,5.31,7.2,8.15a98.19,98.19,0,0,1,7.59,8.93,53.25,53.25,0,0,1,5.84,9.71,25.55,25.55,0,0,1,2.34,10.87l-.39,237.61a10.34,10.34,0,0,1,1.17,4.66,8,8,0,0,1-2,5.63,15.29,15.29,0,0,1-4.88,3.5,20.57,20.57,0,0,1-6.25,1.74,52.19,52.19,0,0,1-6.05.39q-6.25,0-12.31-.19t-12.3-.2q-6.25,0-9.38-3.49l-10.93-12.81a37.92,37.92,0,0,1-1.56,11.45q-1.56,4.84-10.09,4.85ZM402.46,79.07a22.23,22.23,0,0,0-3.69-12,34.6,34.6,0,0,0-8.35-9.32A30.75,30.75,0,0,0,377,51.5a87.06,87.06,0,0,0-14.56-1.16q-6.62,0-14.18-.2a100.68,100.68,0,0,0-14.17.59q-13.59,1.94-21,12a38.47,38.47,0,0,0-7.38,23.3V318.23c0,1.56.52,2.33,1.55,2.33h31.06c1,0,1.56-1.22,1.56-3.69V229.32q7.37,0,14.56-.19t14.56-.19V319.4a1,1,0,0,0,1.16,1.16h30.29c1.55,0,2.32-.51,2.32-1.55a3.16,3.16,0,0,0-.38-1.94Zm-33.39,115.7H340V84.12h29.12Z"/><path class="cls-1" d="M518.54,72.47l5.83,20.58q3.87-13.59,8.15-27.18t8.54-27.18h40.38a17.07,17.07,0,0,1,7.77,1.75c2.33,1.16,3.75,3.3,4.27,6.4L609.4,64.7A13.5,13.5,0,0,1,612.89,74V341.53q0,11.64-11.65,11.65H569.41a41.68,41.68,0,0,1-5.25-.39,8.2,8.2,0,0,1-4.85-2.33l-17.08-19.41a5.89,5.89,0,0,1-3.89-3.3,15.68,15.68,0,0,1-1.35-5.63,46.11,46.11,0,0,1,0-6.22c.12-2.07.19-3.75.19-5a9.17,9.17,0,0,1-5.24-2.14,38.23,38.23,0,0,1-5.44-4.85c-1.68-1.81-3.24-3.62-4.66-5.44a46.64,46.64,0,0,0-3.3-3.88v47q0,11.64-11.58,11.65H475.67q-6.18,0-9.27-3.5l-16.61-19a8.92,8.92,0,0,1-5.21-4.66,17.26,17.26,0,0,1-1.36-7V51.5q0-12.81,12.75-12.81h31.29q3.48,0,7.72,3.69t5,6.79ZM583,51.5a1,1,0,0,0-1.16-1.16H550l-.77.77q-7.77,26.79-15.34,53t-15,53l-30.28-106-1.17-.77H456a1,1,0,0,0-1.16,1.16V318.62a1,1,0,0,0,1.16,1.17h31.45a1,1,0,0,0,1.17-1.16l-.11-144,29.22,102.11q0,.78,1.17.78c.77,0,1.17-.26,1.17-.78l29.12-102.5V318.63c0,.77.25,1.16.77,1.16h31.84a1,1,0,0,0,1.16-1.17ZM529.42,306.2l.77.77Z"/><path class="cls-2" d="M51.1,665.12a33.13,33.13,0,0,1-5.25-5.82c-1.68-2.33-3.3-4.41-4.85-6.22a17,17,0,0,0-2.13-1.74,16.4,16.4,0,0,1-2.14-1.75,48.71,48.71,0,0,1-7.57-8.73,35.57,35.57,0,0,1-4.85-10.29,22.28,22.28,0,0,1-1-5.83c-.14-2.33-.26-4.85-.39-7.57s-.2-5.37-.2-8V420.52q0-3.5-.19-7a25.44,25.44,0,0,1,.58-7q2.71-18.24,16.31-27.76a52.84,52.84,0,0,1,31.06-9.51q3.87,0,9.9-.19t12.23,0q6.21.19,12,.77a36.34,36.34,0,0,1,9.7,2.14,35.39,35.39,0,0,1,11.07,6.21,56.86,56.86,0,0,1,9.12,9.32q1.17,2,2.14,3.88a22.75,22.75,0,0,0,2.13,3.5q5.82,7,9.9,12.61a77.81,77.81,0,0,1,6.6,10.68A45,45,0,0,1,159,428.48a76.2,76.2,0,0,1,1.55,12.23q.78,22.13.59,35.14a135.7,135.7,0,0,1-1.36,19.6q-1.17,6.62-3.11,8.35a6.72,6.72,0,0,1-4.66,1.75q-12,0-18.63.19c-4.41.14-7.71.2-9.9.2h-4.86q-3.11-.78-5.24-1.17c-1.42-.25-2.91-1.29-4.46-3.1L98.85,492h-.39v27.18l30.29-.39a29.8,29.8,0,0,1,8.73,1.36c3,.91,4.72,3,5.24,6.4l16.7,19.42a6.6,6.6,0,0,1,1.94,4.85v87.55q0,12-3.3,20.19t-12.62,15.92q-8.94,7.37-17.27,8.54A140,140,0,0,1,109,684.15q-7.77,0-16.5.19a62.3,62.3,0,0,1-16.51-1.75l-.38-.39a38.57,38.57,0,0,1-13.79-6.4A52.18,52.18,0,0,1,51.1,665.12v.39l-.39-.39Zm80.37-193V439.35q0-11.07-.2-20.77t-.58-12a36.08,36.08,0,0,0-7.18-14.17,32,32,0,0,0-13-9.51,31.59,31.59,0,0,0-8.54-1.55q-5.44-.39-11.46-.58t-11.64,0q-5.64.19-8.74.19a48.64,48.64,0,0,0-10.87,1.16,29.61,29.61,0,0,0-9.71,4.27V386q-9.7,5.82-12.42,14.36a62.66,62.66,0,0,0-2.72,19v190c0,2.2.06,4.46.2,6.79s.25,4.6.38,6.8a17.11,17.11,0,0,0,1,5.24,34.34,34.34,0,0,0,23.3,21.35,55.59,55.59,0,0,0,16.5,1.55q9.12-.39,16.89-.38,17.48,0,28.15-8.16t10.68-27.18v-82.3c0-1.56-.53-2.33-1.56-2.33H82.16A1,1,0,0,0,81,532v31.84c0,.52.71.91,2.14,1.16a27.14,27.14,0,0,0,4.85.39c1.81,0,3.69-.06,5.63-.19s3.3-.2,4.08-.2v52H68.57V414.31H97.69v58.24c0,.52.45,1,1.36,1.36a6,6,0,0,0,2.13.58h28.34C130.82,474.49,131.47,473.71,131.47,472.16Z"/><path class="cls-2" d="M263.47,684.15q-9.32,0-17.67.19a79,79,0,0,1-15.91-1.17,50.19,50.19,0,0,1-14.56-5,47,47,0,0,1-13.59-11.46q-3.12-3.88-6.41-7.37c-2.2-2.33-4.34-4.8-6.41-7.38a13.43,13.43,0,0,0-2.71-2.72,13.43,13.43,0,0,1-2.72-2.71,41.52,41.52,0,0,1-11.26-28.74q0-47-.19-93.37t-.2-93.38v-7c0-2.85.06-5.69.2-8.55s.32-5.63.58-8.34a37.75,37.75,0,0,1,1.16-6.8A46.7,46.7,0,0,1,189.12,379a44.26,44.26,0,0,1,24.26-10.1q3.88-.37,7.77-.38h7.76q7,0,14.56-.2A60,60,0,0,1,258,369.66a39.4,39.4,0,0,1,14,6,40.91,40.91,0,0,1,10.87,10.67,29.61,29.61,0,0,1,2.14,3.3,28.78,28.78,0,0,0,2.13,3.31q4.67,5.43,8.74,9.9a83.94,83.94,0,0,1,7.38,9.31,45,45,0,0,1,5.24,10.49,40,40,0,0,1,1.94,13V629c0,2.86.06,5.89.19,9.13a41.39,41.39,0,0,1-.58,9.12,39.32,39.32,0,0,1-12.81,24.66,44,44,0,0,1-25.63,11.45l-.39-.39-3.88.78A20.51,20.51,0,0,1,263.47,684.15ZM280.55,412.8q0-15.15-10.13-23.91t-25-8.75q-8.19,0-17.54-.19a83.31,83.31,0,0,0-18.13,1.56,39.88,39.88,0,0,0-15.59,6.6q-6.83,4.86-9.55,15.36a49.44,49.44,0,0,0-1.37,11.28c-.13,4.67-.19,8.42-.19,11.27q0,48.6.19,96t.2,96a30.8,30.8,0,0,0,7.41,20.22A33.85,33.85,0,0,0,209.22,650a32.2,32.2,0,0,0,7.21,1c3,.13,6,.19,9.16.19s6.24-.06,9.35-.19,5.72-.19,7.8-.19a45.51,45.51,0,0,0,24.36-6.61q10.72-6.6,13.06-21v.39a38.47,38.47,0,0,0,.59-8.55c-.14-2.85-.2-5.7-.2-8.56ZM246.77,616.59H218V413.92h28.73Z"/><path class="cls-2" d="M384.42,683.37a37.89,37.89,0,0,1-20.33-5.63A68.31,68.31,0,0,1,348,664l-13.17-15.15q-4.65-5.43-7.55-9.51a41.42,41.42,0,0,1-4.65-8.34,35.47,35.47,0,0,1-2.32-9.32,110.77,110.77,0,0,1-.58-12.43q0-57.45.2-114.34t.19-114.34q0-12.81,12.81-12.81H364.8a14.58,14.58,0,0,1,7.76,2.13,10.4,10.4,0,0,1,4.66,6.41l6.22,7.38q0-7.38,2.12-11.65c1.41-2.85,5-4.27,10.62-4.27h30.9a15.65,15.65,0,0,1,7.73,1.94,9.68,9.68,0,0,1,4.63,6.21l16.22,19.41a9.11,9.11,0,0,1,1.93,4.08,22.83,22.83,0,0,1,.39,4.08q0,57.85.19,114.73t.2,114.73a106.05,106.05,0,0,1-1,13.59,34.67,34.67,0,0,1-4.07,12.81l-.38-.39q-5.42,10.1-12,15.14a39.19,39.19,0,0,1-14.33,7A69.42,69.42,0,0,1,409.78,683H390.61a24.8,24.8,0,0,0-3.1.19A24.66,24.66,0,0,1,384.42,683.37Zm44.05-302.84a1,1,0,0,0-1.16-1.16H396.25a1,1,0,0,0-1.17,1.16V615.81H366V380.53a1,1,0,0,0-1.16-1.16H333a1,1,0,0,0-1.16,1.16q0,57.56-.2,114.51t-.19,114.5c0,2.85.06,5.84.19,9a25.66,25.66,0,0,0,1.75,8.55,33.45,33.45,0,0,0,13.59,17.11,38.68,38.68,0,0,0,21,5.83h28.34a29.76,29.76,0,0,0,16.89-5.05A35.34,35.34,0,0,0,425,631.71a24.37,24.37,0,0,0,3.1-10.89c.26-4.15.39-8,.39-11.67ZM348,663.79v.39l2.32,2.69Z"/><path class="cls-2" d="M478.94,660.07a22.77,22.77,0,0,1-5.63-5,10.77,10.77,0,0,1-2.52-7V382.86q0-6.6,2.91-10.68T484,368.11h64.06A39,39,0,0,1,566.49,373a42.72,42.72,0,0,1,14.56,12.23,23.16,23.16,0,0,1,2.14,3.49,22.28,22.28,0,0,0,2.13,3.5q5.83,6.6,10.29,11.65a67.87,67.87,0,0,1,7.57,10.28,42.9,42.9,0,0,1,4.66,11.46,63.65,63.65,0,0,1,1.55,15.14v98.62q0,3.1.2,6.79a23.24,23.24,0,0,1-.58,6.8,44.81,44.81,0,0,1-9.52,21.74,38.37,38.37,0,0,1-19.6,12.81q1.93,10.1,4.07,17.86t4.47,16.31q2.33,8.54,5.05,19t6.21,25.63l.77.38a2.47,2.47,0,0,1,1.36,2.72c-.13,1.29-.19,2.46-.19,3.5a8.6,8.6,0,0,1-4.27,8,17.32,17.32,0,0,1-8.93,2.52h-29.9c-1.3,0-3.69-.2-7.18-.58s-5.5-1.36-6-2.91v.38l-.77-1.16a8.72,8.72,0,0,1-5.25,3.49,27.77,27.77,0,0,1-6.4.78H503.4a8.51,8.51,0,0,1-5.24-1.94,45.7,45.7,0,0,1-4.47-3.89l.39.39-.39-.77v.38l-.38-.38h.38ZM579.5,417.8a64.12,64.12,0,0,0-1.36-13.59,29.35,29.35,0,0,0-6-12,33.66,33.66,0,0,0-10.87-8.93,28,28,0,0,0-13.2-3.5H484q-.78,0-1.17,1.17a6.3,6.3,0,0,0-.38,1.94V648.43a1.07,1.07,0,0,0,.38.77L484,650H513.5c2.33,0,3.49-.78,3.49-2.33V646.1a1.59,1.59,0,0,1-.39-1.17V565.34q5.82,21.36,9.71,35.53t7,28.53q.76,4.67,1.55,8.93a43.21,43.21,0,0,0,2.72,8.93,1.74,1.74,0,0,1-.2.78,1.71,1.71,0,0,0-.19.77c0,.78.64,1.17,1.94,1.17H569a3.45,3.45,0,0,0,1.55-.39,1.24,1.24,0,0,0,.78-1.16,3.82,3.82,0,0,0-.78-2.72q-3.12-12.81-5.63-22.52t-5.44-21q-2.91-11.25-5.43-21.16l-4.27-16.69a57.18,57.18,0,0,1-1.75-8,33.15,33.15,0,0,0,20.19-8.74,32.58,32.58,0,0,0,10.87-19.21,48.35,48.35,0,0,0,.39-6V417.8ZM545.72,522.24H516.6V413.53h29.12Z"/><path class="cls-2" d="M265.59,738.63q-.39-8.14-.58-16.3t-.2-16.31q0-12.81,12.82-12.81h31.45a15.76,15.76,0,0,1,7.76,1.94,9.68,9.68,0,0,1,4.66,6.21l16.31,19.41a9.24,9.24,0,0,1,1.94,4.08,23.7,23.7,0,0,1,.39,4.08v267.5q0,11.66-11.65,11.65H297a8.26,8.26,0,0,1-5.44-1.94c-1.55-1.3-3-2.59-4.27-3.88l.39.39-.39-.78v.39l-.39-.39h.39l-14.75-17.08a15.06,15.06,0,0,0-3.88-2.91,7,7,0,0,1-3.11-4.08h-.39l-2.33-12.43v31.06c0,3.89-.77,6.8-2.33,8.74s-4.27,2.91-8.15,2.91h-26q-6.23,0-9.32-3.49l-16.31-19.42c-2.85-1-4.66-2.59-5.43-4.65a19.79,19.79,0,0,1-1.17-7V706q0-12.81,12.81-12.81h31.45c2.07,0,4.33,1,6.8,3.1a17.19,17.19,0,0,1,4.85,5.83l.78-.39.77,2.72ZM310.24,706a1,1,0,0,0-1.16-1.16H277.63a1,1,0,0,0-1.17,1.16V850.45L239.58,705.63l-1.17-.77H207A1,1,0,0,0,205.8,706V973.53a1,1,0,0,0,1.16,1.16h31.45a1,1,0,0,0,1.17-1.16V811.24l36.88,162.68,1.17.77h31.45a1,1,0,0,0,1.16-1.16Z"/><path class="cls-2" d="M472.14,838.8q2.72,2.73,2.72,7.77v31.84a11.68,11.68,0,0,1-3.11,8.34,10.64,10.64,0,0,1-8.15,3.3H428.27v39.22h15.92a15.76,15.76,0,0,1,7.76,1.94,9.66,9.66,0,0,1,4.66,6.21l16.31,19.41a9.24,9.24,0,0,1,1.94,4.08,23.61,23.61,0,0,1,.39,4.08v31.44q0,11.66-11.65,11.65H384.78q-6.21,0-9.31-3.49l-16.31-19.42a9,9,0,0,1-5.24-4.65,17.26,17.26,0,0,1-1.36-7V705.63q0-12.81,12.81-12.81h78.82a15.76,15.76,0,0,1,7.76,1.94,9.68,9.68,0,0,1,4.66,6.21l16.31,19.42a9.15,9.15,0,0,1,1.94,4.07,23.8,23.8,0,0,1,.39,4.08V760q0,11.64-11.65,11.64H428.27v39.22c2.33,0,4.91-.06,7.76-.19a45.28,45.28,0,0,1,8.35.38,19.89,19.89,0,0,1,7.38,2.53,10,10,0,0,1,4.46,6.6ZM445.35,942.08a1,1,0,0,0-1.16-1.17H398.37V856.66h45.82c.51-.51.77-.9.77-1.16V823.66c0-.25-.26-.64-.77-1.16H398.37V738.25h45.82a1,1,0,0,0,1.16-1.17V705.63a1,1,0,0,0-1.16-1.16H365.37a1,1,0,0,0-1.16,1.16v267.9a1,1,0,0,0,1.16,1.16h78.82a1,1,0,0,0,1.16-1.16Z"/><path class="cls-2" d="M511.74,772.8a10.84,10.84,0,0,1-8.54-3.49l-16.31-19a10.42,10.42,0,0,1-5.24-5,17.11,17.11,0,0,1-1.36-7V706.8q0-12.82,12.81-12.82h94.35a15.66,15.66,0,0,1,7.76,1.95,9.6,9.6,0,0,1,4.66,6.21l16.31,19.41a9.24,9.24,0,0,1,1.94,4.08,23.59,23.59,0,0,1,.39,4.07v31.45q0,11.65-11.65,11.65h-19.8V997.6q0,11.64-11.65,11.65H544q-6.21,0-9.31-3.5l-16.31-19.41q-4.27-1.56-5.44-4.66a19.94,19.94,0,0,1-1.16-7Zm76.87-66a1,1,0,0,0-1.16-1.17H493.1a1,1,0,0,0-1.16,1.17v31.45a1,1,0,0,0,1.16,1.16h30.29V974.69a1,1,0,0,0,1.16,1.17H556a1,1,0,0,0,1.16-1.17V739.41h30.29a1,1,0,0,0,1.16-1.16Z"/></svg>